<svg xmlns="http://www.w3.org/2000/svg" xmlns:xlink="http://www.w3.org/1999/xlink" width="500" zoomAndPan="magnify" viewBox="0 0 375 118.499997" height="158" preserveAspectRatio="xMidYMid meet" version="1.0"><defs><g/><clipPath id="8ff0ceb533"><rect x="0" width="50" y="0" height="86"/></clipPath><clipPath id="807ab0d3a1"><rect x="0" width="129" y="0" height="92"/></clipPath><clipPath id="e23f4c1ce9"><path d="M 0.589844 1 L 76 1 L 76 108.886719 L 0.589844 108.886719 Z M 0.589844 1 " clip-rule="nonzero"/></clipPath><clipPath id="4cfa13fcb6"><path d="M 11 19 L 66 19 L 66 114.671875 L 11 114.671875 Z M 11 19 " clip-rule="nonzero"/></clipPath><clipPath id="4b4e7ff497"><rect x="0" width="55" y="0" height="96"/></clipPath><clipPath id="fdf96ed93a"><rect x="0" width="77" y="0" height="115"/></clipPath></defs><g transform="matrix(1, 0, 0, 1, 109, 24)"><g clip-path="url(#8ff0ceb533)"><g fill="#ffffff" fill-opacity="1"><g transform="translate(0.614775, 66.95315)"><g><path d="M 24.25 0.640625 C 20.164062 0.640625 16.566406 -0.1875 13.453125 -1.84375 C 10.347656 -3.507812 7.910156 -6.050781 6.140625 -9.46875 C 4.378906 -12.882812 3.5 -17.140625 3.5 -22.234375 C 3.5 -27.328125 4.378906 -31.582031 6.140625 -35 C 7.910156 -38.414062 10.347656 -40.953125 13.453125 -42.609375 C 16.566406 -44.273438 20.164062 -45.109375 24.25 -45.109375 C 28.320312 -45.109375 31.910156 -44.28125 35.015625 -42.625 C 38.117188 -40.976562 40.546875 -38.441406 42.296875 -35.015625 C 44.046875 -31.585938 44.921875 -27.328125 44.921875 -22.234375 C 44.921875 -17.140625 44.046875 -12.878906 42.296875 -9.453125 C 40.546875 -6.023438 38.117188 -3.484375 35.015625 -1.828125 C 31.910156 -0.179688 28.320312 0.640625 24.25 0.640625 Z M 24.25 -7 C 28.019531 -7 30.894531 -8.207031 32.875 -10.625 C 34.863281 -13.050781 35.859375 -16.921875 35.859375 -22.234375 C 35.859375 -27.546875 34.863281 -31.414062 32.875 -33.84375 C 30.894531 -36.28125 28.019531 -37.5 24.25 -37.5 C 20.457031 -37.5 17.5625 -36.28125 15.5625 -33.84375 C 13.5625 -31.414062 12.5625 -27.546875 12.5625 -22.234375 C 12.5625 -16.921875 13.5625 -13.050781 15.5625 -10.625 C 17.5625 -8.207031 20.457031 -7 24.25 -7 Z M 24.25 -7 "/></g></g></g></g></g><g transform="matrix(1, 0, 0, 1, 176, 17)"><g clip-path="url(#807ab0d3a1)"><g fill="#039d55" fill-opacity="1"><g transform="translate(1.02684, 71.627626)"><g><path d="M 5.15625 0 L 5.15625 -35.828125 L 13.90625 -35.828125 L 13.90625 -30.5 L 14.578125 -30.375 C 15.441406 -32.363281 16.578125 -33.820312 17.984375 -34.75 C 19.398438 -35.675781 21.113281 -36.140625 23.125 -36.140625 C 25.15625 -36.140625 26.703125 -35.796875 27.765625 -35.109375 L 26.25 -27.34375 L 25.5625 -27.21875 C 24.976562 -27.457031 24.414062 -27.628906 23.875 -27.734375 C 23.332031 -27.847656 22.671875 -27.90625 21.890625 -27.90625 C 19.378906 -27.90625 17.460938 -27.019531 16.140625 -25.25 C 14.816406 -23.488281 14.15625 -20.660156 14.15625 -16.765625 L 14.15625 0 Z M 5.15625 0 "/></g></g></g><g fill="#039d55" fill-opacity="1"><g transform="translate(29.119317, 71.627626)"><g><path d="M 5.15625 0 L 5.15625 -35.828125 L 13.90625 -35.828125 L 13.90625 -30.5 L 14.578125 -30.375 C 15.441406 -32.363281 16.578125 -33.820312 17.984375 -34.75 C 19.398438 -35.675781 21.113281 -36.140625 23.125 -36.140625 C 25.15625 -36.140625 26.703125 -35.796875 27.765625 -35.109375 L 26.25 -27.34375 L 25.5625 -27.21875 C 24.976562 -27.457031 24.414062 -27.628906 23.875 -27.734375 C 23.332031 -27.847656 22.671875 -27.90625 21.890625 -27.90625 C 19.378906 -27.90625 17.460938 -27.019531 16.140625 -25.25 C 14.816406 -23.488281 14.15625 -20.660156 14.15625 -16.765625 L 14.15625 0 Z M 5.15625 0 "/></g></g></g><g fill="#039d55" fill-opacity="1"><g transform="translate(57.211794, 71.627626)"><g><path d="M 17.703125 0.6875 C 14.867188 0.6875 12.363281 0 10.1875 -1.375 C 8.007812 -2.75 6.300781 -4.828125 5.0625 -7.609375 C 3.832031 -10.398438 3.21875 -13.828125 3.21875 -17.890625 C 3.21875 -21.984375 3.847656 -25.421875 5.109375 -28.203125 C 6.378906 -30.984375 8.132812 -33.0625 10.375 -34.4375 C 12.613281 -35.8125 15.207031 -36.5 18.15625 -36.5 C 20.382812 -36.5 22.316406 -36.113281 23.953125 -35.34375 C 25.585938 -34.582031 26.96875 -33.390625 28.09375 -31.765625 L 28.78125 -31.921875 L 28.78125 -50.21875 L 37.765625 -50.21875 L 37.765625 0 L 28.78125 0 L 28.78125 -4.640625 L 28.09375 -4.78125 C 27.09375 -3.082031 25.726562 -1.742188 24 -0.765625 C 22.269531 0.203125 20.171875 0.6875 17.703125 0.6875 Z M 20.625 -6.953125 C 23.15625 -6.953125 25.15625 -7.851562 26.625 -9.65625 C 28.101562 -11.46875 28.84375 -14.210938 28.84375 -17.890625 C 28.84375 -21.578125 28.101562 -24.328125 26.625 -26.140625 C 25.15625 -27.960938 23.15625 -28.875 20.625 -28.875 C 17.976562 -28.875 15.957031 -27.988281 14.5625 -26.21875 C 13.164062 -24.457031 12.46875 -21.679688 12.46875 -17.890625 C 12.46875 -14.128906 13.164062 -11.363281 14.5625 -9.59375 C 15.957031 -7.832031 17.976562 -6.953125 20.625 -6.953125 Z M 20.625 -6.953125 "/></g></g></g><g fill="#039d55" fill-opacity="1"><g transform="translate(100.146186, 71.627626)"><g><path d="M 5.15625 0 L 5.15625 -35.828125 L 13.90625 -35.828125 L 13.90625 -30.5 L 14.578125 -30.375 C 15.441406 -32.363281 16.578125 -33.820312 17.984375 -34.75 C 19.398438 -35.675781 21.113281 -36.140625 23.125 -36.140625 C 25.15625 -36.140625 26.703125 -35.796875 27.765625 -35.109375 L 26.25 -27.34375 L 25.5625 -27.21875 C 24.976562 -27.457031 24.414062 -27.628906 23.875 -27.734375 C 23.332031 -27.847656 22.671875 -27.90625 21.890625 -27.90625 C 19.378906 -27.90625 17.460938 -27.019531 16.140625 -25.25 C 14.816406 -23.488281 14.15625 -20.660156 14.15625 -16.765625 L 14.15625 0 Z M 5.15625 0 "/></g></g></g></g></g><g transform="matrix(1, 0, 0, 1, 98, 1)"><g clip-path="url(#fdf96ed93a)"><g clip-path="url(#e23f4c1ce9)"><path fill="#039d55" d="M 70.898438 28.550781 L 55.824219 28.550781 L 55.824219 17.765625 C 55.824219 17.375 55.953125 10.75 51.402344 5.941406 C 48.285156 2.949219 43.867188 1.261719 38.277344 1.261719 C 32.691406 1.261719 28.269531 2.820312 25.152344 6.070312 C 20.605469 10.878906 20.605469 17.375 20.734375 17.894531 L 20.734375 28.683594 L 5.660156 28.683594 L 0.589844 108.605469 L 75.964844 108.605469 Z M 22.035156 28.550781 L 22.035156 17.636719 C 22.035156 16.855469 22.164062 11.007812 26.191406 6.980469 C 28.921875 4.121094 33.078125 2.5625 38.277344 2.5625 C 43.476562 2.5625 47.636719 3.992188 50.363281 6.980469 C 54.394531 11.136719 54.523438 16.855469 54.523438 17.636719 L 54.523438 28.550781 L 38.277344 28.550781 C 38.277344 28.550781 22.035156 28.550781 22.035156 28.550781 Z M 22.035156 28.550781 " fill-opacity="1" fill-rule="nonzero"/></g><g clip-path="url(#4cfa13fcb6)"><g transform="matrix(1, 0, 0, 1, 11, 19)"><g clip-path="url(#4b4e7ff497)"><g fill="#ffffff" fill-opacity="1"><g transform="translate(0.161108, 75.130903)"><g><path d="M 27.125 0.71875 C 22.570312 0.71875 18.550781 -0.210938 15.0625 -2.078125 C 11.582031 -3.941406 8.851562 -6.785156 6.875 -10.609375 C 4.90625 -14.429688 3.921875 -19.191406 3.921875 -24.890625 C 3.921875 -30.578125 4.90625 -35.332031 6.875 -39.15625 C 8.851562 -42.988281 11.582031 -45.832031 15.0625 -47.6875 C 18.550781 -49.550781 22.570312 -50.484375 27.125 -50.484375 C 31.6875 -50.484375 35.703125 -49.554688 39.171875 -47.703125 C 42.648438 -45.859375 45.367188 -43.015625 47.328125 -39.171875 C 49.296875 -35.335938 50.28125 -30.578125 50.28125 -24.890625 C 50.28125 -19.191406 49.296875 -14.421875 47.328125 -10.578125 C 45.367188 -6.742188 42.648438 -3.898438 39.171875 -2.046875 C 35.703125 -0.203125 31.6875 0.71875 27.125 0.71875 Z M 27.125 -7.828125 C 31.351562 -7.828125 34.578125 -9.179688 36.796875 -11.890625 C 39.023438 -14.609375 40.140625 -18.941406 40.140625 -24.890625 C 40.140625 -30.828125 39.023438 -35.15625 36.796875 -37.875 C 34.578125 -40.601562 31.351562 -41.96875 27.125 -41.96875 C 22.882812 -41.96875 19.644531 -40.601562 17.40625 -37.875 C 15.175781 -35.15625 14.0625 -30.828125 14.0625 -24.890625 C 14.0625 -18.941406 15.175781 -14.609375 17.40625 -11.890625 C 19.644531 -9.179688 22.882812 -7.828125 27.125 -7.828125 Z M 27.125 -7.828125 "/></g></g></g></g></g></g></g></g></svg>